<svg id="svg" xmlns="http://www.w3.org/2000/svg" xmlns:xlink="http://www.w3.org/1999/xlink" width="400" height="400" viewBox="0, 0, 400,400"><g id="svgg"><path id="path0" d="M153.530 4.956 C 145.309 13.620,140.185 24.444,138.217 37.301 C 137.372 42.822,137.006 43.705,135.094 44.835 C 132.139 46.580,128.504 51.328,126.097 56.585 L 124.094 60.960 127.695 75.868 C 136.181 111.004,138.281 124.714,138.281 144.967 L 138.281 159.115 128.043 176.237 C 98.187 226.166,61.891 275.212,30.230 308.408 C 16.847 322.440,16.898 322.692,35.576 335.055 C 41.178 338.763,49.444 343.869,53.945 346.401 L 62.129 351.005 61.838 354.057 C 61.450 358.133,62.498 359.175,73.594 365.746 C 91.475 376.334,97.487 378.540,100.979 375.794 C 106.299 371.609,104.438 367.470,95.145 362.819 C 91.155 360.822,85.502 357.800,82.583 356.102 L 77.275 353.016 80.030 349.359 C 103.491 318.221,137.011 259.722,159.479 210.704 C 164.519 199.708,164.830 198.062,162.443 195.027 C 159.450 191.222,150.781 193.770,150.781 198.455 C 150.781 201.507,123.840 254.589,109.950 278.906 C 97.141 301.330,73.204 338.447,70.457 340.145 C 69.234 340.901,37.500 321.899,37.500 320.411 C 37.500 320.129,40.870 316.212,44.988 311.707 C 76.749 276.963,108.804 233.125,138.381 183.984 L 148.256 167.578 200.403 167.578 L 252.550 167.578 262.651 184.375 C 290.855 231.273,327.650 281.460,356.154 311.912 C 360.074 316.100,363.281 319.887,363.281 320.328 C 363.281 321.305,352.906 328.056,340.253 335.310 L 330.859 340.696 329.057 338.512 C 312.298 318.207,273.597 250.349,253.038 205.224 C 247.115 192.222,243.730 189.792,238.636 194.886 C 235.816 197.707,236.128 199.102,242.845 213.745 C 264.069 260.005,295.300 314.642,318.266 345.692 L 323.459 352.712 321.718 354.025 C 315.035 359.066,290.033 370.225,273.023 375.758 C 224.547 391.529,173.230 391.413,126.621 375.427 C 117.582 372.327,113.281 373.609,113.281 379.405 C 113.281 384.096,114.231 384.880,123.568 387.898 C 191.570 409.882,266.564 401.711,327.582 365.670 C 337.803 359.633,339.190 358.253,338.907 354.389 L 338.672 351.172 348.828 345.299 C 354.414 342.069,360.742 338.236,362.891 336.782 C 384.244 322.331,384.192 322.506,371.167 308.984 C 338.182 274.740,299.057 221.357,268.249 168.560 L 262.305 158.375 262.759 140.711 C 263.077 128.362,263.665 120.591,264.715 114.883 C 266.735 103.900,265.604 100.781,259.600 100.781 C 254.474 100.781,253.424 103.062,251.330 118.750 L 250.339 126.172 200.576 126.373 L 150.814 126.574 150.460 124.810 C 150.265 123.840,149.699 120.234,149.203 116.797 C 147.849 107.438,144.827 92.719,140.968 76.700 C 137.149 60.847,137.160 60.620,141.922 56.096 C 150.395 48.048,170.344 49.955,192.093 60.890 C 199.909 64.820,200.873 64.820,208.688 60.890 C 232.940 48.696,252.429 47.893,261.146 58.727 L 263.453 61.594 261.024 71.641 C 257.496 86.227,258.233 89.844,264.734 89.844 C 269.155 89.844,270.390 87.643,273.767 73.755 L 276.825 61.183 274.367 55.931 C 272.789 52.558,270.413 49.230,267.726 46.629 C 263.736 42.765,263.499 42.307,262.592 36.726 C 259.685 18.827,247.247 -0.447,238.985 0.145 C 232.755 0.592,225.643 15.715,220.564 39.314 C 219.938 42.225,219.733 42.375,212.500 45.225 C 208.418 46.833,204.055 48.692,202.805 49.356 C 200.635 50.510,200.264 50.441,194.602 47.825 C 191.341 46.318,186.914 44.487,184.766 43.757 L 180.859 42.430 179.524 35.864 C 177.125 24.064,171.036 8.223,166.730 2.577 C 163.288 -1.935,159.405 -1.236,153.530 4.956 M161.374 20.117 C 163.047 24.070,166.136 33.421,166.757 36.406 L 167.260 38.828 159.216 38.457 C 154.792 38.253,151.073 38.002,150.952 37.899 C 149.887 36.992,158.462 17.188,159.920 17.188 C 160.038 17.188,160.693 18.506,161.374 20.117 M245.468 24.790 C 247.471 28.990,250.273 37.552,249.776 37.952 C 249.684 38.026,246.013 38.252,241.617 38.455 L 233.624 38.823 234.068 36.794 C 234.830 33.317,237.620 24.782,239.296 20.804 C 241.178 16.337,241.551 16.578,245.468 24.790 M250.000 147.266 L 250.000 154.688 200.391 154.688 L 150.781 154.688 150.781 147.266 L 150.781 139.844 200.391 139.844 L 250.000 139.844 250.000 147.266 " stroke="none" fill="#000000" fill-rule="evenodd"></path></g></svg>