<svg id="svg" xmlns="http://www.w3.org/2000/svg" xmlns:xlink="http://www.w3.org/1999/xlink" width="400" height="400" viewBox="0, 0, 400,400"><g id="svgg"><path id="path0" d="M176.172 0.910 C 48.537 15.317,-32.485 148.218,12.105 270.031 C 17.819 285.641,31.561 310.409,41.245 322.548 L 42.717 324.394 82.290 289.345 L 121.864 254.297 121.870 190.039 L 121.875 125.781 140.234 125.781 C 150.332 125.781,158.594 125.634,158.594 125.454 C 158.594 125.274,158.024 122.903,157.328 120.185 C 152.372 100.839,158.240 88.121,183.938 62.507 L 200.000 46.499 216.062 62.507 C 241.760 88.121,247.628 100.839,242.672 120.185 C 241.976 122.903,241.406 125.274,241.406 125.454 C 241.406 125.634,247.134 125.781,254.134 125.781 L 266.862 125.781 304.596 92.383 L 342.329 58.984 335.267 52.266 C 294.980 13.939,234.292 -5.651,176.172 0.910 M317.871 110.533 L 278.516 145.402 278.125 202.584 L 277.734 259.766 275.554 266.016 C 267.916 287.906,252.364 297.656,225.083 297.656 L 211.719 297.656 211.719 317.188 L 211.719 336.719 200.000 336.719 L 188.281 336.719 188.281 317.188 L 188.281 297.656 174.774 297.656 C 153.211 297.656,139.559 291.835,131.026 279.001 L 129.790 277.143 109.622 295.035 C 98.529 304.876,82.305 319.247,73.568 326.971 L 57.682 341.016 64.328 347.370 C 122.535 403.030,215.887 416.300,289.388 379.361 C 382.913 332.360,424.699 222.294,385.946 125.022 C 379.486 108.806,365.874 85.240,357.808 76.308 C 357.488 75.953,339.516 91.354,317.871 110.533 M190.498 88.086 C 178.564 100.289,175.864 108.765,180.674 118.926 C 182.287 122.333,199.114 145.278,200.000 145.278 C 200.886 145.278,217.713 122.333,219.326 118.926 C 221.484 114.368,221.682 106.698,219.787 101.116 C 218.599 97.618,201.929 78.906,200.000 78.906 C 199.712 78.906,195.436 83.037,190.498 88.086 M144.704 165.430 C 145.050 184.728,145.326 185.857,151.244 192.184 C 156.936 198.269,160.550 199.405,175.586 199.838 L 188.281 200.203 188.274 182.719 C 188.265 162.864,187.675 160.395,181.539 154.535 C 175.904 149.154,173.265 148.474,157.942 148.455 L 144.399 148.438 144.704 165.430 M225.000 150.060 C 213.901 155.074,211.736 160.399,211.726 182.719 L 211.719 200.203 224.414 199.846 C 249.753 199.132,254.886 193.418,255.331 165.430 L 255.601 148.438 242.058 148.455 C 230.140 148.470,228.094 148.662,225.000 150.060 M144.668 240.430 C 144.969 260.604,145.591 262.947,152.236 268.951 C 158.211 274.349,159.079 274.580,174.414 274.867 L 188.281 275.127 188.281 258.015 C 188.281 237.552,187.771 235.326,181.692 229.246 C 175.903 223.458,172.927 222.656,157.219 222.656 L 144.403 222.656 144.668 240.430 M225.802 224.013 C 214.672 227.941,211.719 235.072,211.719 258.015 L 211.719 275.127 225.586 274.864 C 241.189 274.570,243.032 274.037,248.550 268.230 C 254.691 261.768,255.038 260.346,255.333 240.430 L 255.597 222.656 242.447 222.718 C 232.591 222.764,228.421 223.089,225.802 224.013 " stroke="none" fill="#000000" fill-rule="evenodd"></path></g></svg>