<svg id="svg" xmlns="http://www.w3.org/2000/svg" xmlns:xlink="http://www.w3.org/1999/xlink" width="400" height="400" viewBox="0, 0, 400,400"><g id="svgg"><path id="path0" d="M126.172 0.948 C 101.646 9.713,103.424 46.015,128.655 51.662 L 132.892 52.610 132.384 56.969 C 129.991 77.531,124.407 96.565,112.581 124.479 C 103.427 146.084,100.001 157.228,97.051 175.000 C 95.112 186.679,94.628 361.940,96.512 369.922 C 99.688 383.375,108.695 393.205,122.403 398.181 L 127.415 400.000 200.000 400.000 L 272.585 400.000 277.597 398.181 C 291.305 393.205,300.312 383.375,303.488 369.922 C 305.424 361.717,304.902 186.640,302.905 174.609 C 300.030 157.294,296.562 146.060,287.443 124.528 C 275.485 96.296,270.029 77.705,267.616 56.969 L 267.108 52.610 271.345 51.662 C 295.026 46.362,298.700 13.491,276.858 2.337 L 273.047 0.391 200.781 0.251 C 151.004 0.154,127.786 0.372,126.172 0.948 M240.152 54.492 C 240.391 55.674,241.119 60.591,241.772 65.418 C 245.022 89.467,250.566 107.989,262.022 133.078 C 264.994 139.587,270.611 154.693,270.179 155.016 C 244.425 174.232,218.242 176.368,192.578 161.347 C 173.050 149.917,161.780 146.551,142.886 146.509 L 132.257 146.484 135.589 138.672 C 137.421 134.375,140.847 126.465,143.201 121.094 C 150.069 105.422,155.582 84.998,158.228 65.418 C 158.881 60.591,159.609 55.674,159.848 54.492 L 160.280 52.344 200.000 52.344 L 239.720 52.344 240.152 54.492 " stroke="none" fill="#000000" fill-rule="evenodd"></path></g></svg>