<svg id="svg" xmlns="http://www.w3.org/2000/svg" xmlns:xlink="http://www.w3.org/1999/xlink" width="400" height="400" viewBox="0, 0, 400,400"><g id="svgg"><path id="path0" d="M168.988 1.528 C 164.488 4.272,163.786 6.220,163.238 17.495 C 162.685 28.875,160.177 37.764,156.297 42.105 C 154.125 44.534,144.162 48.515,101.994 63.798 C 89.555 68.306,78.423 72.489,77.256 73.092 C 72.012 75.804,52.956 134.350,48.079 162.732 C 45.893 175.452,45.355 186.899,44.529 238.281 C 44.076 266.426,43.180 310.723,42.537 336.719 C 41.204 390.641,41.110 389.300,46.607 394.855 C 52.112 400.416,38.588 399.966,200.000 399.966 C 362.100 399.966,347.907 400.467,353.676 394.537 C 358.911 389.155,358.686 394.573,357.832 294.574 C 356.746 167.413,357.034 173.695,351.119 148.047 C 345.778 124.886,331.965 82.691,327.258 75.153 C 325.957 73.069,326.141 73.147,300.057 63.685 C 287.780 59.231,272.988 53.775,267.188 51.559 C 261.387 49.344,254.570 46.769,252.039 45.836 C 243.655 42.748,239.858 34.444,239.079 17.495 C 238.248 -0.588,239.534 0.006,201.172 0.006 C 173.121 0.006,171.347 0.090,168.988 1.528 M226.543 19.336 C 226.518 27.974,221.986 33.376,207.471 42.067 C 200.885 46.011,201.550 46.004,195.026 42.192 C 180.096 33.467,175.781 28.311,175.781 19.193 L 175.781 12.500 201.172 12.500 L 226.563 12.500 226.543 19.336 M176.202 44.580 C 176.460 44.997,179.318 47.124,182.555 49.308 C 185.791 51.492,188.140 53.548,187.774 53.877 C 186.030 55.444,168.728 67.188,168.163 67.188 C 167.808 67.188,166.941 63.847,166.235 59.765 L 164.951 52.342 167.639 48.346 C 169.118 46.149,170.538 43.516,170.794 42.494 L 171.260 40.637 173.497 42.230 C 174.727 43.106,175.945 44.164,176.202 44.580 M232.044 43.782 C 232.586 45.088,234.016 47.520,235.223 49.186 L 237.417 52.216 236.183 59.116 C 235.505 62.911,234.670 66.324,234.330 66.700 C 233.854 67.225,218.046 56.972,214.595 53.900 C 214.243 53.586,216.704 51.397,220.064 49.035 C 223.423 46.673,226.842 43.990,227.660 43.073 C 229.699 40.790,230.884 40.981,232.044 43.782 M153.519 60.352 C 154.285 63.528,181.944 213.629,181.791 213.776 C 181.708 213.855,176.743 201.032,170.758 185.280 C 156.416 147.538,156.588 147.927,153.825 146.964 C 149.493 145.453,145.307 148.171,145.317 152.488 C 145.319 153.483,156.393 183.278,169.926 218.699 L 194.531 283.101 194.531 335.301 L 194.531 387.500 147.165 387.500 L 99.798 387.500 100.336 381.836 C 101.593 368.610,104.317 351.841,109.379 326.172 C 124.753 248.207,122.889 221.986,93.639 104.835 C 90.602 92.670,88.257 82.577,88.428 82.406 C 88.946 81.887,122.656 69.705,122.656 70.036 C 122.656 70.205,121.074 73.494,119.141 77.344 C 113.410 88.754,114.403 90.785,127.126 93.665 L 135.111 95.473 131.618 99.761 C 127.097 105.312,127.128 106.618,132.089 119.659 C 136.631 131.598,137.780 133.159,141.947 133.040 C 148.382 132.858,149.092 128.328,144.527 116.575 C 142.811 112.156,141.406 108.421,141.406 108.274 C 141.406 108.128,143.867 104.932,146.875 101.172 C 155.990 89.778,154.837 87.046,139.453 83.596 C 135.156 82.632,131.538 81.754,131.412 81.644 C 131.286 81.534,133.467 77.269,136.257 72.167 L 141.331 62.891 146.642 60.791 C 153.189 58.203,153.004 58.215,153.519 60.352 M256.687 61.250 C 261.043 63.022,261.079 63.065,266.070 72.276 C 268.826 77.362,270.996 81.596,270.892 81.684 C 270.788 81.772,267.188 82.632,262.891 83.596 C 247.735 86.995,246.346 89.965,254.934 100.603 C 257.648 103.964,260.111 107.107,260.408 107.587 C 260.704 108.067,259.538 112.073,257.817 116.490 C 253.158 128.445,253.877 132.856,260.515 133.044 C 264.530 133.158,265.677 131.560,270.228 119.529 C 275.164 106.480,275.186 105.625,270.716 99.936 L 267.213 95.477 275.208 93.667 C 287.946 90.784,288.936 88.758,283.195 77.328 C 281.257 73.470,279.984 70.313,280.366 70.313 C 281.153 70.313,313.514 82.003,313.959 82.448 C 314.117 82.607,312.812 88.291,311.057 95.079 C 281.071 211.104,277.717 248.184,291.038 316.406 C 298.381 354.015,302.344 378.440,302.344 386.088 C 302.344 387.434,300.129 387.500,254.688 387.500 L 207.031 387.500 207.031 336.243 L 207.031 284.986 232.031 219.543 C 259.970 146.408,259.136 149.309,252.895 146.936 C 246.828 144.629,247.357 143.699,232.383 183.016 C 226.039 199.671,220.760 213.206,220.651 213.094 C 220.510 212.950,248.584 60.919,249.154 58.736 C 249.244 58.392,251.565 59.166,256.687 61.250 M206.641 63.965 C 208.789 65.460,210.823 66.914,211.160 67.197 C 211.498 67.480,211.071 69.351,210.211 71.356 L 208.649 75.000 201.156 75.000 L 193.662 75.000 192.078 71.419 C 191.207 69.450,190.665 67.668,190.873 67.460 C 192.957 65.377,201.209 60.326,201.874 60.727 C 202.347 61.013,204.492 62.470,206.641 63.965 M181.517 78.711 L 183.373 82.422 180.986 102.148 C 179.673 112.998,178.404 121.875,178.167 121.875 C 177.755 121.875,170.859 85.411,170.754 82.676 C 170.717 81.722,177.527 75.783,179.479 75.067 C 179.579 75.030,180.496 76.670,181.517 78.711 M227.795 78.659 C 231.232 80.940,232.048 81.870,231.736 83.151 C 231.520 84.039,229.896 92.676,228.128 102.344 C 226.359 112.012,224.686 120.625,224.410 121.484 C 224.134 122.344,222.786 113.924,221.415 102.773 L 218.923 82.499 220.555 79.140 C 222.529 75.076,222.411 75.084,227.795 78.659 M207.031 88.214 C 207.031 88.607,209.141 106.098,211.719 127.082 L 216.406 165.234 208.814 206.522 C 204.639 229.230,201.132 247.511,201.020 247.147 C 200.909 246.782,197.452 228.295,193.339 206.063 L 185.859 165.642 190.586 126.954 C 193.185 105.675,195.313 88.093,195.313 87.883 C 195.313 87.672,197.949 87.500,201.172 87.500 C 204.395 87.500,207.031 87.822,207.031 88.214 M89.005 139.453 C 97.290 174.522,98.642 182.465,97.315 188.298 C 92.885 207.776,89.162 273.343,87.767 356.461 L 87.246 387.532 72.027 387.321 C 51.344 387.033,53.639 394.214,55.101 334.375 C 55.756 307.520,56.795 260.938,57.409 230.859 C 58.817 161.851,60.651 149.997,76.818 105.469 L 79.229 98.828 82.179 110.938 C 83.801 117.598,86.873 130.430,89.005 139.453 M326.512 108.453 C 335.829 134.461,342.186 161.431,343.737 181.531 C 345.453 203.762,346.236 382.966,344.627 385.156 C 343.200 387.099,343.116 387.111,329.144 387.322 L 315.096 387.534 314.571 358.025 C 313.038 271.877,309.583 210.602,305.012 188.472 L 303.826 182.732 307.049 167.343 C 308.822 158.878,312.503 142.637,315.230 131.250 C 322.247 101.944,322.925 99.227,323.157 99.460 C 323.271 99.573,324.781 103.621,326.512 108.453 M106.578 241.976 C 107.273 256.073,103.585 299.940,101.852 298.206 C 101.599 297.953,103.477 254.399,104.393 239.285 C 105.094 227.704,105.925 228.728,106.578 241.976 M298.317 247.656 C 298.807 256.465,299.394 268.770,299.622 275.000 C 299.850 281.230,300.235 289.141,300.478 292.578 C 301.112 301.561,300.376 299.645,298.522 287.482 C 295.496 267.642,294.322 228.131,296.842 230.981 C 297.163 231.344,297.826 238.848,298.317 247.656 M128.198 315.864 C 123.017 317.680,122.266 319.769,122.266 332.361 C 122.266 350.404,121.632 350.000,149.948 350.000 C 178.813 350.000,178.516 350.184,178.516 332.318 C 178.516 314.839,178.667 314.932,150.391 314.932 C 137.265 314.932,129.987 315.238,128.198 315.864 M227.417 315.841 C 222.227 317.705,221.484 319.774,221.484 332.361 C 221.484 350.404,220.851 350.000,249.167 350.000 C 277.921 350.000,277.734 350.113,277.734 332.770 C 277.734 314.935,278.277 315.292,250.781 315.059 C 236.027 314.935,229.313 315.159,227.417 315.841 M166.406 332.422 L 166.406 337.500 150.391 337.500 L 134.375 337.500 134.375 332.422 L 134.375 327.344 150.391 327.344 L 166.406 327.344 166.406 332.422 M265.625 332.422 L 265.625 337.500 249.609 337.500 L 233.594 337.500 233.594 332.422 L 233.594 327.344 249.609 327.344 L 265.625 327.344 265.625 332.422 " stroke="none" fill="#000000" fill-rule="evenodd"></path></g></svg>