<svg id="svg" xmlns="http://www.w3.org/2000/svg" xmlns:xlink="http://www.w3.org/1999/xlink" width="400" height="400" viewBox="0, 0, 400,400"><g id="svgg"><path id="path0" d="M176.172 0.910 C 75.696 12.252,0.391 97.375,0.391 199.609 C 0.391 257.698,19.928 304.269,61.029 344.153 C 165.902 445.918,343.466 402.865,389.736 264.453 C 436.506 124.546,322.896 -15.652,176.172 0.910 M284.153 91.211 C 327.847 157.432,310.307 227.221,249.653 228.482 L 241.885 228.643 224.588 280.532 L 207.292 332.422 194.500 332.422 L 181.709 332.422 142.130 217.969 L 102.551 103.516 104.596 102.576 C 107.754 101.125,123.505 95.897,123.782 96.208 C 123.918 96.360,139.779 142.107,159.028 197.869 C 178.278 253.630,194.279 298.982,194.586 298.650 C 195.180 298.008,220.313 222.468,220.313 221.325 C 220.313 220.953,219.275 220.037,218.008 219.288 C 210.231 214.694,201.225 204.331,196.759 194.838 C 179.358 157.848,204.352 113.797,255.469 91.366 C 260.640 89.096,277.006 82.960,278.173 82.853 C 278.414 82.831,281.106 86.592,284.153 91.211 M259.240 113.934 C 217.981 134.607,201.789 170.722,223.136 194.465 C 227.925 199.792,227.280 200.592,233.636 181.445 C 236.738 172.100,239.382 164.329,239.511 164.177 C 239.720 163.931,258.987 170.087,260.290 170.816 C 260.579 170.978,258.206 178.920,255.017 188.465 C 251.828 198.011,249.219 205.910,249.219 206.020 C 249.219 206.130,250.889 206.019,252.930 205.774 C 286.925 201.688,296.761 161.491,274.462 117.773 C 269.428 107.904,270.657 108.214,259.240 113.934 " stroke="none" fill="#000000" fill-rule="evenodd"></path></g></svg>